<?xml version="1.0" encoding="UTF-8"?>
<svg width="18px" height="18px" viewBox="0 0 18 18" version="1.1" xmlns="http://www.w3.org/2000/svg" xmlns:xlink="http://www.w3.org/1999/xlink">
    <!-- Generator: Sketch 52.5 (67469) - http://www.bohemiancoding.com/sketch -->
    <title>Group 6</title>
    <desc>Created with Sketch.</desc>
    <g id="KyberSwap.com-" stroke="none" stroke-width="1" fill="none" fill-rule="evenodd">
        <g id="swap-done--2" transform="translate(-742.000000, -431.000000)" fill-rule="nonzero">
            <g id="Group-2" transform="translate(548.000000, 428.000000)">
                <g id="Group-6" transform="translate(194.000000, 3.000000)">
                    <circle id="Oval" fill="#31CB9E" cx="9" cy="9" r="9"></circle>
                    <g id="Group-4" transform="translate(5.000000, 3.000000)" fill="#FFFFFF">
                        <path d="M3.55555556,5.89039706 L8.08759124,8.41378786 C8.24680267,8.50172016 8.44444444,8.38980632 8.44444444,8.2139417 L8.44444444,3.56418781 C8.44444444,3.38565858 8.24680267,3.27640935 8.08759124,3.36434165 L3.55555556,5.89039706 Z" id="Shape"></path>
                        <path d="M7.90545667,2.2621234 L4.83688,0.0474186622 C4.69435049,-0.0556523219 4.49033765,0.018347359 4.4540066,0.182203795 L3.33333333,5.11111111 L7.87750971,2.64269318 C8.02842331,2.56076497 8.04239679,2.36255154 7.90545667,2.2621234" id="Shape"></path>
                        <path d="M4.83399512,11.9537427 L7.90518191,9.73853004 C8.04211381,9.63807887 8.02814117,9.43981998 7.88003116,9.35787297 L3.33333333,6.88888889 L4.45393925,11.8189267 C4.48747359,11.9828207 4.6942687,12.0541939 4.83399512,11.9537427" id="Shape"></path>
                        <path d="M2.39949118,6.0013661 L3.54996864,0.509652813 C3.59524206,0.293809356 3.35555926,0.138074203 3.18511815,0.271951791 L0.239682804,2.57792493 C0.0878836948,2.69540934 0,2.88119865 0,3.07518454 L0,8.92481546 C0,9.11880135 0.0878836948,9.30459066 0.239682804,9.42207507 L3.18511815,11.7280482 C3.35555926,11.8619258 3.59524206,11.7061906 3.54996864,11.4903472 L2.39949118,6.0013661 Z" id="Shape"></path>
                    </g>
                </g>
            </g>
        </g>
    </g>
</svg>