<svg xmlns="http://www.w3.org/2000/svg" width="103" height="54" viewBox="0 0 103 54">
    <g fill="none" fill-rule="nonzero">
        <g fill="#141927">
            <path d="M54.617 25.53c-.262.147-.586.22-.96.22-.125 0-.412-.012-.886-.06v1.33c.411.11.823.147 1.247.147.649 0 1.185-.17 1.622-.5.436-.33.823-.843 1.147-1.552l3.667-8.207-1.734.025-2.22 5.373-2.158-5.373H52.61l3.006 7.034-.312.696c-.2.428-.437.721-.686.868zM63.186 23.296c.274.378.648.671 1.097.879.462.208.96.317 1.522.317 1.06 0 1.933-.354 2.62-1.099.686-.732 1.047-1.648 1.047-2.748 0-1.099-.349-2.015-1.06-2.748-.71-.732-1.597-1.099-2.657-1.099l.063-.012c-1.086 0-1.934.354-2.532 1.063V13.06h-1.61V24.31h1.497v-1.013h.013zm.686-4.422a2.3 2.3 0 0 1 1.609-.635c.66 0 1.21.22 1.659.672.449.452.66 1.026.66 1.722 0 .709-.211 1.295-.66 1.747-.45.452-.96.696-1.622.696h-.025c-.623 0-1.16-.196-1.609-.599-.449-.403-.673-1.001-.673-1.795s.212-1.392.66-1.808zM48.854 34.47h-.012c-.936 0-1.684.306-2.258.904v-.732h-1.497v7.4h1.61v-4.42c0-.501.149-.904.473-1.222.325-.317.736-.476 1.248-.476.486 0 .885.17 1.197.476.312.318.462.733.462 1.246v4.397h1.609v-4.617c0-.88-.25-1.588-.749-2.125-.499-.537-1.21-.83-2.083-.83zM57.037 34.458c-1.086 0-2.009.379-2.757 1.124-.748.745-1.135 1.66-1.135 2.748 0 1.099.387 2.015 1.147 2.748.761.733 1.734 1.111 2.894 1.111 1.148 0 2.146-.39 3.006-1.184l-.76-1.075c-.674.586-1.41.867-2.196.867-.66 0-1.21-.171-1.659-.513-.449-.342-.723-.83-.823-1.441h5.613c.137-.367.15-.99.15-.99 0-.976-.337-1.783-.998-2.43-.649-.647-1.485-.965-2.482-.965zm-2.246 3.164c.125-.55.387-.99.786-1.32.4-.33.848-.488 1.385-.5.536 0 .985.17 1.36.5.361.33.548.77.56 1.32h-4.09zM74.985 24.505c1.148 0 2.146-.391 3.006-1.185l-.76-1.075c-.674.587-1.41.867-2.196.867-.66 0-1.21-.17-1.659-.513-.449-.342-.723-.83-.823-1.44h5.613c.15-.392.15-.99.15-.99 0-.977-.337-1.783-.998-2.43-.661-.648-1.484-.965-2.482-.965-1.085 0-2.008.378-2.757 1.123-.748.745-1.135 1.661-1.135 2.748 0 1.1.387 2.016 1.148 2.748.76.745 1.733 1.112 2.893 1.112zm-1.621-5.875c.399-.33.848-.488 1.384-.5.537 0 .986.17 1.36.5.362.33.549.77.561 1.32h-4.09c.124-.563.386-.99.785-1.32zM65.892 40.748c-.486 0-.86-.085-1.097-.28-.25-.196-.362-.526-.362-.99v-3.469h2.233v-1.367h-2.233v-1.93h-1.621v1.93h-1.223v1.367h1.223v3.603c0 .855.25 1.502.736 1.918.486.415 1.16.635 2.033.635.386 0 .823-.061 1.334-.171v-1.331c-.449.048-.76.085-.998.085h-.025zM76.757 39.392l-2.32-4.921h-.55l-2.282 4.982-1.983-4.811h-1.709l3.343 7.523h.549l2.357-4.898 2.358 4.898h.56l3.331-7.523h-1.709zM84.84 34.47c-1.123 0-2.059.38-2.82 1.112-.76.733-1.147 1.649-1.147 2.736 0 1.087.386 1.99 1.147 2.735.761.733 1.697 1.112 2.82 1.124a3.953 3.953 0 0 0 2.818-1.124c.786-.745 1.16-1.66 1.16-2.748 0-1.074-.4-1.99-1.185-2.735-.76-.733-1.696-1.087-2.794-1.1zm1.633 5.545c-.449.452-.998.672-1.659.672-.673 0-1.222-.22-1.671-.672-.45-.452-.661-1.026-.661-1.697 0-.696.212-1.258.66-1.71.45-.452.999-.672 1.672-.696h.013c.66.012 1.21.244 1.659.684.449.451.66 1.026.66 1.71 0 .683-.236 1.257-.673 1.71zM93.982 34.568h.059-.06zM91.8 35.594v-.965h-1.498v7.401h1.61v-3.957c0-.647.211-1.135.623-1.502.412-.354.936-.537 1.56-.537h.486v-1.392a2.227 2.227 0 0 0-.6-.074c-.91 0-1.646.342-2.182 1.026zM81.409 20.401c0-.647.212-1.136.624-1.502.411-.354.935-.537 1.559-.537h.486v-1.393a2.227 2.227 0 0 0-.598-.073c-.923 0-1.66.354-2.196 1.038v-.965h-1.496v7.39h1.609V20.4h.012zM83.48 16.884h.059-.06zM96.077 30.746h1.61V42.03h-1.61zM99.632 37.878l3.031-3.236h-1.983l-2.944 3.224 3.28 4.164h1.934zM51.673 16.957h-1.996l-2.93 3.236 3.28 4.165h1.933l-3.318-4.152zM45.087 13.073h1.61v11.285h-1.61z"/>
        </g>
        <path fill="#31CB9E" d="M16 26.507l20.394 11.355c.717.396 1.606-.108 1.606-.9V16.04c0-.804-.89-1.295-1.606-.9L16 26.508zM35.575 10.18L21.766.213c-.641-.463-1.56-.13-1.723.607L15 23l20.449-11.108c.679-.369.742-1.26.126-1.712M21.753 53.792l13.82-9.969a1.005 1.005 0 0 0-.113-1.713L15 31l5.043 22.185c.15.738 1.081 1.059 1.71.607"/>
        <path fill="#31CB9E" d="M10.798 27.006l5.177-24.713c.204-.97-.875-1.672-1.642-1.07L1.079 11.602A2.833 2.833 0 0 0 0 13.838v26.324c0 .873.395 1.709 1.079 2.237l13.254 10.377c.767.603 1.846-.098 1.642-1.07l-5.177-24.7z"/>
    </g>
</svg>
